<svg width="116" height="210" viewBox="0 0 116 210" fill="none" xmlns="http://www.w3.org/2000/svg">
<path d="M59.0562 8.8926C52.9844 13.7746 47.2408 18.9182 46.3382 20.2259C44.6972 22.667 44.6151 23.8003 44.369 62.8567C44.2049 88.8362 44.451 102.872 44.9433 102.611C45.4357 102.523 50.769 98.4259 56.9228 93.6311C65.4562 86.9182 68.41 84.1285 69.6408 81.3387C71.1998 78.0259 71.2818 76.0208 71.2818 38.8823C71.2818 17.4362 71.0357 -0.0868892 70.7075 0.000290315C70.2972 0.000290315 65.128 4.01055 59.0562 8.8926Z" fill="url(#paint0_linear_264_13)"/>
<path d="M103.445 39.4926C96.2249 45.1593 91.3018 49.6926 90.3993 51.5234C89.0044 54.226 88.9223 58.4106 88.6762 114.729C88.5941 147.944 88.7582 175.144 89.0864 175.144C90.3993 175.057 111.979 157.621 113.538 155.354C115.097 153 115.179 151.257 115.589 91.7131C115.835 57.9747 115.753 30.426 115.507 30.426C115.179 30.426 109.763 34.5234 103.445 39.4926Z" fill="url(#paint1_linear_264_13)"/>
<path d="M14.3382 43.7644C6.46124 49.9542 2.44072 53.7029 1.37406 55.7952C-0.020816 58.7593 -0.102867 62.0721 0.0612353 119.262L0.307389 179.59L11.9587 170.436C19.2612 164.77 24.1843 160.236 25.0869 158.405C26.4817 155.703 26.5638 151.518 26.81 95.1132C26.892 61.985 26.7279 34.785 26.3997 34.785C25.9894 34.785 20.5741 38.8824 14.3382 43.7644Z" fill="url(#paint2_linear_264_13)"/>
<path d="M58.9743 115.862C42.8102 128.59 44.205 123.446 44.205 170.959C44.205 192.405 44.4512 210.016 44.8614 209.929C46.1743 209.841 67.5076 191.97 69.1486 189.703C70.7896 187.262 70.8717 186.216 71.1178 147.159C71.1999 125.19 71.0358 107.144 70.7076 107.144C70.3794 107.231 65.046 111.154 58.9743 115.862Z" fill="url(#paint3_linear_264_13)"/>
<defs>
<linearGradient id="paint0_linear_264_13" x1="57.8001" y1="102.614" x2="57.8001" y2="-3.8147e-05" gradientUnits="userSpaceOnUse">
<stop stop-color="#201D48"/>
<stop offset="1" stop-color="#4D46AE"/>
</linearGradient>
<linearGradient id="paint1_linear_264_13" x1="102.196" y1="175.144" x2="102.196" y2="30.426" gradientUnits="userSpaceOnUse">
<stop stop-color="#201D48"/>
<stop offset="1" stop-color="#4D46AE"/>
</linearGradient>
<linearGradient id="paint2_linear_264_13" x1="13.4154" y1="179.59" x2="13.4154" y2="34.785" gradientUnits="userSpaceOnUse">
<stop stop-color="#201D48"/>
<stop offset="1" stop-color="#4D46AE"/>
</linearGradient>
<linearGradient id="paint3_linear_264_13" x1="57.6568" y1="209.929" x2="57.6568" y2="107.144" gradientUnits="userSpaceOnUse">
<stop stop-color="#201D48"/>
<stop offset="1" stop-color="#4D46AE"/>
</linearGradient>
</defs>
</svg>
