<svg width="121" height="200" viewBox="0 0 121 200" fill="none" xmlns="http://www.w3.org/2000/svg">
<path d="M61.3632 8.71017C55.0579 13.3492 49.0934 18.2368 48.1561 19.4794C46.452 21.7989 46.3668 22.8759 46.1112 59.9883C45.9408 84.6747 46.1964 98.012 46.7076 97.7634C47.2189 97.6806 52.7573 93.7871 59.1479 89.2309C68.0094 82.8522 71.0769 80.2013 72.355 77.5504C73.9739 74.4025 74.0591 72.4972 74.0591 37.2072C74.0591 16.8285 73.8035 0.177635 73.4627 0.260475C73.0366 0.260475 67.6686 4.07112 61.3632 8.71017Z" fill="white"/>
<path d="M107.461 37.787C99.9623 43.1716 94.8499 47.4793 93.9126 49.2189C92.4641 51.787 92.3789 55.7633 92.1233 109.278C92.0381 140.84 92.2085 166.686 92.5493 166.686C93.9126 166.604 116.322 150.036 117.941 147.882C119.56 145.645 119.645 143.988 120.071 87.4083C120.327 55.3491 120.242 29.1716 119.986 29.1716C119.645 29.1716 114.022 33.0651 107.461 37.787Z" fill="#FFF8F8"/>
<path d="M14.9258 41.8462C6.74588 47.7278 2.57073 51.2899 1.46304 53.2781C0.0145162 56.0947 -0.0706909 59.2426 0.0997233 113.586L0.355345 170.911L12.4548 162.213C20.0382 156.828 25.1506 152.521 26.0879 150.781C27.5364 148.213 27.6216 144.237 27.8772 90.6391C27.9624 59.1598 27.792 33.3136 27.4512 33.3136C27.0252 33.3136 21.4015 37.2071 14.9258 41.8462Z" fill="white"/>
<path d="M61.2788 110.355C44.493 122.45 45.9415 117.562 45.9415 162.71C45.9415 183.089 46.1972 199.823 46.6232 199.74C47.9865 199.657 70.1404 182.675 71.8445 180.521C73.5486 178.201 73.6338 177.207 73.8895 140.095C73.9747 119.219 73.8043 102.071 73.4634 102.071C73.1226 102.154 67.5841 105.882 61.2788 110.355Z" fill="white"/>
</svg>
