<svg width="432" height="420" viewBox="0 0 432 420" fill="none" xmlns="http://www.w3.org/2000/svg">
<path d="M217.363 118.71C211.058 123.349 205.093 128.237 204.156 129.479C202.452 131.799 202.367 132.876 202.111 169.988C201.941 194.675 202.196 208.012 202.708 207.763C203.219 207.681 208.757 203.787 215.148 199.231C224.009 192.852 227.077 190.201 228.355 187.55C229.974 184.402 230.059 182.497 230.059 147.207C230.059 126.829 229.803 110.178 229.463 110.26C229.037 110.26 223.669 114.071 217.363 118.71Z" fill="white"/>
<path d="M263.461 147.787C255.962 153.172 250.85 157.479 249.913 159.219C248.464 161.787 248.379 165.763 248.123 219.278C248.038 250.84 248.208 276.686 248.549 276.686C249.913 276.604 272.322 260.036 273.941 257.882C275.56 255.645 275.645 253.988 276.071 197.408C276.327 165.349 276.242 139.172 275.986 139.172C275.645 139.172 270.022 143.065 263.461 147.787Z" fill="#FFF8F8"/>
<path d="M170.926 151.846C162.746 157.728 158.571 161.29 157.463 163.278C156.015 166.095 155.929 169.243 156.1 223.586L156.355 280.911L168.455 272.213C176.038 266.828 181.151 262.521 182.088 260.781C183.536 258.213 183.622 254.237 183.877 200.639C183.962 169.16 183.792 143.314 183.451 143.314C183.025 143.314 177.401 147.207 170.926 151.846Z" fill="white"/>
<path d="M217.279 220.355C200.493 232.45 201.942 227.562 201.942 272.71C201.942 293.089 202.197 309.823 202.623 309.74C203.987 309.657 226.14 292.675 227.844 290.521C229.549 288.201 229.634 287.207 229.889 250.095C229.975 229.219 229.804 212.071 229.463 212.071C229.123 212.154 223.584 215.882 217.279 220.355Z" fill="white"/>
</svg>
