<svg width="498" height="498" viewBox="0 0 498 498" fill="none" xmlns="http://www.w3.org/2000/svg">
<g clip-path="url(#clip0_84_27)">
<path d="M153.68 380.309V242.191L73.9219 180.914V351.129C73.9219 370.582 83.6484 380.309 103.102 380.309" fill="#4285F4"/>
<path d="M149.789 241.219L249 316.113L348.211 241.219V145.898L249 220.793L149.789 145.898" fill="#EA4335"/>
<path d="M344.32 380.309V242.191L424.078 180.914V351.129C424.078 370.582 414.352 380.309 394.898 380.309" fill="#34A853"/>
<path d="M73.9219 182.859L153.68 244.137V148.816L124.5 126.445C98.2383 106.019 73.9219 126.445 73.9219 151.734" fill="#C5221F"/>
<path d="M424.078 182.859L344.32 244.137V148.816L373.5 126.445C399.762 106.019 424.078 126.445 424.078 151.734" fill="#FBBC04"/>
</g>
<defs>
<clipPath id="clip0_84_27">
<rect width="498" height="498" fill="white"/>
</clipPath>
</defs>
</svg>
