<svg width="302" height="302" viewBox="0 0 302 302" fill="none" xmlns="http://www.w3.org/2000/svg">
<path d="M223.914 35.8625C159.654 -5.00187 74.6035 13.7127 33.9468 77.6518C33.9373 77.6706 33.9279 77.6895 33.909 77.7084C-6.74775 141.647 12.3821 226.604 76.642 267.459C140.902 308.314 225.953 289.609 266.609 225.67C266.619 225.651 266.628 225.632 266.647 225.613C307.304 161.674 288.174 76.7174 223.914 35.8625ZM94.8186 214.109L49.4054 221.309L26.0287 161.796L54.2374 127.199L95.7718 154.426L94.8186 214.109ZM135.362 20.9701L117.157 49.6129L63.5805 76.3494L47.8671 64.1844C59.5224 44.1203 103.039 22.3291 111.287 23.1785C122.555 17.5538 135.815 20.2434 135.362 20.9701ZM231.993 235.607L199.443 272.31L145.592 278.793L140.732 243.903L194.394 215.543L231.993 235.607ZM196.074 162.533L145.385 132.597L156.899 73.4049L213.127 73.6031L240.203 127.17L196.083 162.523L196.074 162.533ZM242.402 55.9738L222.678 50.736L200.689 29.4639C200.689 29.4639 239.127 47.3008 242.402 55.9738ZM267.751 202.802L270.743 149.688L280.388 131.578C284.305 134.069 283.701 190.194 272.329 207.672C264.788 212.202 267.751 202.802 267.751 202.802Z" fill="black"/>
</svg>
